<svg width="1280" height="439" viewBox="0 0 1280 439" fill="none" xmlns="http://www.w3.org/2000/svg">
<path d="M586.235 234.373C586.235 230.261 585.422 226.405 583.796 222.807C582.352 219.037 580.184 215.781 577.294 213.04C574.405 210.298 570.973 208.156 566.999 206.614C563.207 204.9 559.052 204.044 554.537 204.044C550.202 204.044 546.139 204.815 542.346 206.357C538.553 207.899 535.212 210.041 532.322 212.783C529.613 215.524 527.355 218.78 525.549 222.55C523.923 226.148 523.111 230.004 523.111 234.116C523.111 238.228 523.923 242.084 525.549 245.682C527.174 249.281 529.432 252.451 532.322 255.192C535.212 257.763 538.553 259.904 542.346 261.618C546.319 263.16 550.473 263.931 554.808 263.931C559.143 263.931 563.207 263.16 566.999 261.618C570.792 260.076 574.043 257.934 576.753 255.192C579.642 252.451 581.9 249.281 583.525 245.682C585.332 242.084 586.235 238.314 586.235 234.373ZM524.465 365.714H475.429V168.06H524.465V182.71C534.941 170.202 549.209 163.947 567.27 163.947C577.204 163.947 586.415 165.832 594.904 169.602C603.573 173.2 611.069 178.17 617.39 184.51C623.712 190.85 628.588 198.303 632.02 206.871C635.632 215.439 637.438 224.606 637.438 234.373C637.438 244.14 635.632 253.222 632.02 261.618C628.588 270.014 623.712 277.382 617.39 283.722C611.25 290.062 603.935 295.032 595.446 298.63C586.957 302.228 577.746 304.028 567.812 304.028C550.473 304.028 536.024 298.373 524.465 287.064V365.714ZM646.425 299.915H692.752V109.714H646.425V299.915ZM752.875 233.602C752.875 237.886 753.688 241.912 755.313 245.682C756.939 249.281 759.106 252.451 761.815 255.192C764.705 257.934 768.046 260.076 771.839 261.618C775.813 263.16 780.057 263.931 784.572 263.931C788.907 263.931 792.971 263.16 796.764 261.618C800.737 260.076 804.079 257.934 806.788 255.192C809.677 252.451 811.934 249.281 813.56 245.682C815.366 242.084 816.269 238.228 816.269 234.116C816.269 230.004 815.366 226.148 813.56 222.55C811.934 218.78 809.677 215.524 806.788 212.783C804.079 210.041 800.737 207.899 796.764 206.357C792.971 204.815 788.907 204.044 784.572 204.044C780.057 204.044 775.813 204.815 771.839 206.357C768.046 207.899 764.705 210.041 761.815 212.783C759.106 215.524 756.939 218.694 755.313 222.293C753.688 225.72 752.875 229.489 752.875 233.602ZM814.644 168.06H863.951V299.915H814.644V285.265C804.169 297.773 789.991 304.028 772.11 304.028C761.996 304.028 752.694 302.314 744.205 298.887C735.717 295.289 728.311 290.319 721.99 283.979C715.669 277.639 710.702 270.186 707.089 261.618C703.658 253.05 701.942 243.712 701.942 233.602C701.942 224.178 703.658 215.267 707.089 206.871C710.521 198.303 715.307 190.85 721.448 184.51C727.589 178.17 734.904 173.2 743.393 169.602C751.881 165.832 761.273 163.947 771.568 163.947C788.907 163.947 803.266 169.688 814.644 181.168V168.06ZM878.355 168.06H927.391V184.767C934.074 177.056 940.847 171.915 947.71 169.345C954.573 166.603 962.611 165.232 971.822 165.232C981.575 165.232 989.883 166.775 996.747 169.859C1003.79 172.772 1009.75 176.97 1014.63 182.453C1018.6 186.908 1021.31 191.878 1022.75 197.361C1024.2 202.844 1024.92 209.099 1024.92 216.124V299.915H975.886V233.345C975.886 226.834 975.344 221.607 974.26 217.666C973.357 213.554 971.641 210.298 969.113 207.899C966.945 205.843 964.507 204.386 961.798 203.53C959.089 202.673 956.199 202.244 953.129 202.244C944.82 202.244 938.409 204.643 933.893 209.441C929.559 214.068 927.391 220.751 927.391 229.489V299.915H878.355V168.06ZM1140.9 214.839C1139.27 208.327 1135.93 203.101 1130.87 199.16C1125.82 195.219 1119.68 193.248 1112.45 193.248C1104.87 193.248 1098.63 195.133 1093.76 198.903C1089.06 202.673 1086.08 207.985 1084.82 214.839H1140.9ZM1083.46 241.827C1083.46 261.875 1093.4 271.899 1113.26 271.899C1123.92 271.899 1131.96 267.787 1137.38 259.562H1184.79C1175.21 289.72 1151.28 304.799 1112.99 304.799C1101.25 304.799 1090.51 303.171 1080.75 299.915C1071 296.488 1062.6 291.69 1055.56 285.522C1048.7 279.353 1043.37 271.985 1039.57 263.417C1035.78 254.85 1033.89 245.254 1033.89 234.63C1033.89 223.663 1035.69 213.811 1039.3 205.072C1042.92 196.161 1048.06 188.622 1054.75 182.453C1061.43 176.285 1069.47 171.572 1078.86 168.317C1088.43 164.89 1099.18 163.176 1111.1 163.176C1122.84 163.176 1133.4 164.89 1142.79 168.317C1152.19 171.572 1160.13 176.37 1166.64 182.71C1173.14 189.05 1178.1 196.847 1181.54 206.1C1184.97 215.182 1186.68 225.463 1186.68 236.943V241.827H1083.46ZM1203.06 250.052C1203.06 287.321 1225 299.915 1256.43 299.915H1280V262.646H1263.47C1253.18 262.646 1249.39 259.048 1249.39 250.566V192.991H1279.73V156.493H1249.39V121.538H1203.06V156.493H1184.64V192.991H1203.06V250.052Z" fill="black"/>
<path d="M219.429 12.2262C333.863 12.2262 426.631 104.994 426.631 219.429C426.631 333.863 333.863 426.631 219.429 426.631C104.994 426.631 12.2262 333.863 12.2262 219.429C12.2262 104.994 104.994 12.2262 219.429 12.2262Z" stroke="#0FA958" stroke-width="24.4524"/>
<path d="M390.095 219.429C390.095 125.172 313.685 48.7618 219.429 48.7618C125.172 48.7618 48.7619 125.172 48.7619 219.429C48.7619 313.685 125.172 390.095 219.429 390.095C313.685 390.095 390.095 313.685 390.095 219.429Z" fill="#0FA958"/>
<path d="M153.204 240.217C153.204 244.143 153.897 247.834 155.285 251.289C156.673 254.587 158.524 257.492 160.837 260.005C163.305 262.517 166.158 264.48 169.396 265.894C172.789 267.307 176.413 268.014 180.269 268.014C183.97 268.014 187.44 267.307 190.678 265.894C194.071 264.48 196.924 262.517 199.237 260.005C201.705 257.492 203.633 254.587 205.02 251.289C206.563 247.991 207.334 244.457 207.334 240.688C207.334 236.919 206.563 233.386 205.02 230.088C203.633 226.633 201.705 223.649 199.237 221.136C196.924 218.624 194.071 216.661 190.678 215.247C187.44 213.834 183.97 213.127 180.269 213.127C176.413 213.127 172.789 213.834 169.396 215.247C166.158 216.661 163.305 218.624 160.837 221.136C158.524 223.649 156.673 226.554 155.285 229.852C153.897 232.993 153.204 236.448 153.204 240.217ZM205.946 180.148H248.047V300.993H205.946V287.566C197.001 299.03 184.895 304.762 169.628 304.762C160.991 304.762 153.049 303.191 145.801 300.051C138.553 296.753 132.23 292.198 126.832 286.388C121.435 280.577 117.194 273.746 114.109 265.894C111.179 258.041 109.714 249.483 109.714 240.217C109.714 231.58 111.179 223.413 114.109 215.718C117.04 207.866 121.126 201.035 126.37 195.224C131.613 189.414 137.859 184.859 145.107 181.561C152.355 178.107 160.375 176.379 169.165 176.379C183.97 176.379 196.23 181.64 205.946 192.162V180.148ZM302.217 180.148V300.993H260.347V180.148H302.217ZM257.571 133.742C257.571 130.444 258.188 127.382 259.422 124.555C260.656 121.571 262.352 118.98 264.511 116.781C266.67 114.583 269.138 112.855 271.914 111.599C274.844 110.342 277.928 109.714 281.167 109.714C284.405 109.714 287.412 110.342 290.188 111.599C293.119 112.855 295.663 114.583 297.822 116.781C299.981 118.98 301.678 121.571 302.911 124.555C304.145 127.382 304.762 130.444 304.762 133.742C304.762 137.04 304.145 140.181 302.911 143.164C301.678 145.991 299.981 148.504 297.822 150.703C295.663 152.901 293.119 154.629 290.188 155.885C287.412 157.141 284.405 157.769 281.167 157.769C277.928 157.769 274.844 157.141 271.914 155.885C269.138 154.629 266.67 152.901 264.511 150.703C262.352 148.504 260.656 145.991 259.422 143.164C258.188 140.181 257.571 137.04 257.571 133.742Z" fill="white"/>
</svg>
